<svg width="526" height="232" viewBox="0 0 526 232" fill="none" xmlns="http://www.w3.org/2000/svg">
<path d="M275.727 104.224C275.727 105.2 275.727 161.603 275.727 162.649C279.284 165.253 290.793 165.253 295.233 162.649C295.233 159.952 295.233 106.734 295.233 104.224C290.793 101.62 279.284 101.62 275.727 104.224Z" fill="url(#paint0_radial)"/>
<path d="M445.957 100.364C425.661 100.364 411.502 113.267 411.502 132.82C411.502 152.489 425.661 165.648 445.957 165.648C466.393 165.648 480.413 152.489 480.413 132.82C480.436 113.267 466.393 100.364 445.957 100.364ZM445.957 148.234C437.192 148.234 430.915 142.096 430.915 132.82C430.915 123.799 437.192 117.778 445.957 117.778C454.722 117.778 461 123.799 461 132.82C461 142.096 454.746 148.234 445.957 148.234Z" fill="url(#paint1_radial)"/>
<path d="M375.884 100.829C367.724 100.829 361.842 103.131 356.262 105.828C351.751 102.759 344.498 100.829 338.871 100.829C322.527 100.829 313.437 106.362 308.02 110.85V126.171C308.02 126.171 308.02 142.19 308.02 153.024C308.02 158.208 308.02 162.207 308.02 162.649C311.577 165.253 323.085 165.253 327.526 162.649C327.526 158.999 327.526 126.171 327.526 126.171H327.502V121.87C327.502 121.87 331.385 119.545 334.314 119.545C340.847 119.545 344.87 122.172 345.125 129.914C345.125 139.004 345.125 161.51 345.125 162.626C348.682 165.23 360.191 165.23 364.631 162.626C364.631 158.975 364.631 126.148 364.631 126.148H364.608C364.562 124.543 364.445 124.171 364.236 122.358C364.236 122.358 368.258 119.522 371.304 119.522C377.86 119.522 381.859 122.079 382.231 129.588C382.231 138.47 382.231 161.486 382.231 162.626C385.788 165.23 397.297 165.23 401.737 162.626C401.737 161.51 401.737 157.72 401.737 153C401.737 142.097 401.737 126.148 401.737 126.148V124.636C401.761 107.967 391.043 100.829 375.884 100.829Z" fill="url(#paint2_radial)"/>
<path d="M285.538 72.186C279.028 72.186 273.843 77.0219 273.843 83.7642C273.843 90.274 279.051 95.1098 285.538 95.1098C291.815 95.1098 297.116 90.274 297.116 83.7642C297.116 77.0451 291.815 72.186 285.538 72.186Z" fill="url(#paint3_radial)"/>
<path d="M241.712 102.921C235.017 102.921 227.647 105.06 223.09 109.501V108.99C223.09 108.99 223.09 85.0893 223.09 81.4391C218.672 78.8352 207.164 78.8352 203.607 81.4391C203.607 81.8576 203.607 162.114 203.607 162.114C211.698 165.02 221.834 166.415 230.576 166.415C254.848 166.415 265.101 154.907 265.101 133.657C265.124 113.918 256.778 102.921 241.712 102.921ZM231.855 151.745C229.716 151.745 225.508 151.489 223.113 150.861V120.382C225.763 118.731 230.344 117.987 233.25 117.987C240.829 117.987 244.874 124.195 244.874 134.308C244.874 145.026 240.062 151.745 231.855 151.745Z" fill="url(#paint4_radial)"/>
<path d="M162.456 62.5379C159.456 60.3525 149.738 60.399 145.995 62.6076C145.995 63.6306 145.995 67.0017 146.018 70.7216C145.972 83.2995 144.135 89.2978 143.019 91.7622C142.461 93.0177 141.461 94.1569 140.299 95.1566C134.115 81.8813 120.653 72.6281 105.076 72.6281C86.2677 72.6281 70.5512 86.0429 66.9941 103.829C62.507 106.804 55.5322 112.64 53.5328 121.196C52.9748 123.614 52.3005 126.218 51.6031 128.705C51.1148 130.426 49.8594 134.75 48.6504 138.888C48.4179 139.679 48.2552 140.144 48.2552 140.167C48.1854 140.4 48.1157 140.655 48.0692 140.888C47.116 144.213 46.2557 147.119 46 148.025C48.9759 151.187 58.2989 153.907 61.7862 152.652C61.8327 152.512 64.6924 142.725 64.6924 142.725L64.6459 142.678C65.6921 139.214 67.6451 132.518 69.1563 126.357C72.2019 133.704 77.4562 139.911 84.0823 144.166L82.5711 163.137H77.0842C74.4803 163.137 72.2949 163.137 71.4812 163.137C69.2725 166.857 69.226 176.575 71.4114 179.598C71.5742 179.598 85.7562 179.598 85.7562 179.598H90.1736C94.4514 179.598 98.0086 176.296 98.3573 172.042L100.124 150.025C101.728 150.234 103.379 150.35 105.053 150.35C111.144 150.35 116.887 148.932 122.025 146.444L129.651 173.623C130.651 177.157 133.882 179.621 137.556 179.621H142.787C147.367 179.83 153.156 180.063 153.249 180.086C155.55 177.18 155.922 167.439 153.853 163.626C153.016 163.602 150.552 163.486 147.599 163.37C147.064 163.254 146.53 163.207 145.972 163.207H143.763L135.928 135.052C140.741 128.752 143.67 120.963 143.903 112.477C148.552 109.99 154.876 105.503 158.015 98.5045C160.968 91.9482 162.456 82.4625 162.456 70.3264C162.456 70.3264 162.456 62.6774 162.456 62.5379ZM82.6641 111.478C82.6641 99.1322 92.7077 89.0653 105.076 89.0653C117.445 89.0653 127.489 99.109 127.489 111.478C127.489 123.846 117.422 133.89 105.076 133.89C92.731 133.89 82.6641 123.846 82.6641 111.478Z" fill="#FCC454"/>
<path d="M96.8921 53.6565C96.8921 54.447 96.8921 104.503 96.8921 105.363C99.8912 107.572 109.633 107.572 113.376 105.363C113.376 103.131 113.376 55.6559 113.376 53.6565C109.609 51.4478 99.8912 51.4478 96.8921 53.6565Z" fill="url(#paint5_radial)"/>
<defs>
<radialGradient id="paint0_radial" cx="0" cy="0" r="1" gradientUnits="userSpaceOnUse" gradientTransform="translate(285.484 133.437) scale(23.096)">
<stop offset="0.1744" stop-color="#623F91"/>
<stop offset="0.8" stop-color="#4B2784"/>
</radialGradient>
<radialGradient id="paint1_radial" cx="0" cy="0" r="1" gradientUnits="userSpaceOnUse" gradientTransform="translate(445.964 133.016) scale(33.5677)">
<stop offset="0.1744" stop-color="#623F91"/>
<stop offset="0.8" stop-color="#4B2784"/>
</radialGradient>
<radialGradient id="paint2_radial" cx="0" cy="0" r="1" gradientUnits="userSpaceOnUse" gradientTransform="translate(354.892 132.716) scale(40.0803)">
<stop offset="0.1744" stop-color="#623F91"/>
<stop offset="0.8" stop-color="#4B2784"/>
</radialGradient>
<radialGradient id="paint3_radial" cx="0" cy="0" r="1" gradientUnits="userSpaceOnUse" gradientTransform="translate(285.482 83.6635) scale(11.557)">
<stop offset="0.1744" stop-color="#623F91"/>
<stop offset="0.8" stop-color="#4B2784"/>
</radialGradient>
<radialGradient id="paint4_radial" cx="0" cy="0" r="1" gradientUnits="userSpaceOnUse" gradientTransform="translate(234.368 122.95) scale(37.6429)">
<stop offset="0.1744" stop-color="#623F91"/>
<stop offset="0.8" stop-color="#4B2784"/>
</radialGradient>
<radialGradient id="paint5_radial" cx="0" cy="0" r="1" gradientUnits="userSpaceOnUse" gradientTransform="translate(105.127 79.5053) scale(20.3052)">
<stop offset="0.1744" stop-color="#623F91"/>
<stop offset="0.8" stop-color="#4B2784"/>
</radialGradient>
</defs>
</svg>
