<svg width="526" height="232" viewBox="0 0 526 232" fill="none" xmlns="http://www.w3.org/2000/svg">
<path d="M77 189.103V177.573L89.1953 175.325V93.9196L77 91.6717V80.0664H89.1953H122.25C133.818 80.0664 142.847 82.5486 149.338 87.5223C155.829 92.4866 159.08 99.9143 159.08 109.805C159.08 114.751 157.731 119.181 155.043 123.097C152.354 127.021 148.617 129.925 143.85 131.826C148.008 132.772 151.502 134.496 154.331 136.997C157.16 139.498 159.323 142.523 160.813 146.101C162.302 149.67 163.042 153.576 163.042 157.819C163.042 168.056 159.866 175.831 153.516 181.151C147.165 186.471 138.323 189.131 126.99 189.131H77V189.103ZM107.048 126.047H124.245C129.537 126.047 133.687 124.698 136.712 122.001C139.738 119.303 141.246 115.538 141.246 110.695C141.246 105.253 139.644 101.216 136.431 98.603C133.218 95.9803 128.498 94.669 122.269 94.669H107.057V126.047H107.048ZM107.048 174.576H127.008C132.863 174.576 137.358 173.143 140.496 170.267C143.634 167.401 145.208 163.242 145.208 157.8C145.208 153.96 144.618 150.681 143.437 147.993C142.257 145.296 140.459 143.226 138.052 141.774C135.644 140.322 132.553 139.601 128.769 139.601H107.039V174.576H107.048Z" fill="#23B0DE"/>
<path d="M171.125 189.104V177.574L183.424 175.326V93.9209L171.125 91.6729V80.0676H183.424H201.276L257.645 159.684L258.113 159.534V93.9302L244.812 91.6823V80.077H273.802H286.1V91.6823L273.802 93.9302V189.123H258.122L200.518 106.95L200.049 107.025V175.345L213.35 177.593V189.123H171.125V189.104Z" fill="#23B0DE"/>
<path d="M284.227 189.105V177.574L293.247 176.45L330.02 80.0585H348.716L385.03 176.45L394.978 177.574V189.105H356.865V177.574L365.726 176.151L359.853 159H318.499L312.467 176.151L320.476 177.574V189.105H284.227V189.105ZM323.539 144.548H354.898L340.473 104.178L339.48 101.255H339.022L337.954 104.327L323.539 144.548Z" fill="#23B0DE"/>
<path d="M424.333 80.0585H408.156V145.578H424.333V80.0585Z" fill="#F39555"/>
<path d="M383.48 104.737V120.913H449V104.737H383.48Z" fill="#F39555"/>
</svg>
