<?xml version="1.0" encoding="utf-8"?>
<!-- Generator: Adobe Illustrator 22.1.0, SVG Export Plug-In . SVG Version: 6.00 Build 0)  -->
<svg version="1.1" id="Capa_1" xmlns="http://www.w3.org/2000/svg" xmlns:xlink="http://www.w3.org/1999/xlink" x="0px" y="0px"
	 viewBox="0 0 526.8 233" style="enable-background:new 0 0 526.8 233;" xml:space="preserve">
<style type="text/css">
	.st0{fill:#FF9E18;}
	.st1{fill:url(#SVGID_1_);}
	.st2{fill:#FF5100;}
	.st3{fill:#96262C;}
	.st4{fill:#1A3358;}
	.st5{fill:url(#SVGID_2_);}
	.st6{fill:#010202;}
	.st7{fill:#7C79B8;}
	.st8{fill:#DE0A18;}
	.st9{fill:#17A6DF;}
	.st10{fill:#00548D;}
	.st11{fill:#FFFFFF;}
	.st12{fill:#EA560D;}
	.st13{fill:#E30613;}
	.st14{fill:#F59E00;}
	.st15{fill:url(#SVGID_3_);}
	.st16{fill:#01568C;}
	.st17{fill:#0071CE;}
</style>
<g>
	<g>
		<g>
			<path class="st0" d="M43.3,152.6V127c21.2,0,38.4-17.2,38.4-38.4V53.1h25.5v35.5C107.2,123.9,78.5,152.6,43.3,152.6z"/>
			<linearGradient id="SVGID_1_" gradientUnits="userSpaceOnUse" x1="43.2522" y1="102.8371" x2="107.1783" y2="102.8371">
				<stop  offset="0" style="stop-color:#FF9E18;stop-opacity:0"/>
				<stop  offset="5.826980e-02" style="stop-color:#FC9018;stop-opacity:6.260562e-02"/>
				<stop  offset="0.2406" style="stop-color:#F26A1A;stop-opacity:0.2585"/>
				<stop  offset="0.4217" style="stop-color:#EA4C1A;stop-opacity:0.4531"/>
				<stop  offset="0.599" style="stop-color:#E5361B;stop-opacity:0.6436"/>
				<stop  offset="0.7708" style="stop-color:#E22A1B;stop-opacity:0.8281"/>
				<stop  offset="0.9307" style="stop-color:#E1251B"/>
			</linearGradient>
			<path class="st1" d="M43.3,152.6V127c21.2,0,38.4-17.2,38.4-38.4V53.1h25.5v35.5C107.2,123.9,78.5,152.6,43.3,152.6z"/>
		</g>
		<path class="st2" d="M178.6,45.5c0.6,0.7,0.9,1.5,0.9,2.4c0,1.1-0.4,2-1.2,2.7c-0.7,0.6-1.5,0.9-2.4,0.9c-1,0-1.9-0.4-2.6-1.1
			c-0.7-0.7-1.1-1.6-1.1-2.6c0-1,0.4-1.9,1.2-2.6c0.7-0.6,1.5-0.9,2.4-0.9C177,44.3,177.9,44.7,178.6,45.5z M173.8,46
			c-0.5,0.5-0.7,1.2-0.7,1.9c0,0.7,0.4,1.5,0.9,2.1c0.5,0.5,1.2,0.7,1.9,0.7c0.9,0,1.6-0.3,2.1-0.9c0.5-0.5,0.7-1.2,0.7-1.9
			c0-0.8-0.3-1.5-0.9-2.1c-0.5-0.5-1.2-0.7-1.9-0.7C175,45.1,174.4,45.4,173.8,46z M177.1,47.2c-0.4-0.5-0.7-0.6-1.1-0.6
			c-0.4,0-0.7,0.1-0.9,0.4c-0.2,0.2-0.4,0.6-0.4,0.9c0,0.4,0.1,0.7,0.4,0.9c0.2,0.2,0.5,0.4,0.9,0.4c0.2,0,0.4,0,0.5-0.1
			c0.1-0.1,0.3-0.2,0.6-0.5l0.6,0.6c0,0-0.1,0.1-0.1,0.1c-0.5,0.5-1,0.7-1.6,0.7c-0.7,0-1.2-0.2-1.6-0.7c-0.4-0.4-0.5-0.9-0.5-1.4
			c0-0.6,0.2-1.2,0.7-1.6c0.4-0.4,0.9-0.6,1.5-0.6c0.6,0,1.1,0.3,1.7,0.8L177.1,47.2z"/>
		<path class="st3" d="M155.5,176.4c-4.5,0-8.9-2.4-11.2-6.7L83.2,59.2c-3.4-6.2-1.1-13.9,5.1-17.3c6.2-3.4,13.9-1.1,17.3,5.1
			l61.1,110.5c3.4,6.2,1.1,13.9-5.1,17.3C159.7,175.9,157.6,176.4,155.5,176.4z"/>
		<path class="st2" d="M155.5,176.4c-7.1,0-12.8-5.7-12.8-12.8V53.1c0-7,5.7-12.8,12.8-12.8c7.1,0,12.8,5.7,12.8,12.8v110.5
			C168.3,170.7,162.6,176.4,155.5,176.4z"/>
	</g>
	<g>
		<g>
			<g>
				<path class="st2" d="M193.8,172v-59.6h9.1l31,41.4v-41.4h10.6V172h-9.1l-31-41.4V172H193.8z"/>
				<path class="st2" d="M292.9,172h-10.2v-2.5c-3.4,2.6-6.9,3.8-10.6,3.8c-6.2,0-11.3-2.3-15.4-6.9c-3.6-4-5.4-8.7-5.4-14.2
					c0-6.4,2.3-11.6,6.9-15.8c4-3.5,8.6-5.3,13.9-5.3c3.7,0,7.3,1.3,10.6,3.8v-2.5h10.2V172z M263.9,144.4c-1.6,2-2.4,4.6-2.4,7.8
					c0,3.7,1,6.7,3.2,8.8c2,2,4.5,3.1,7.5,3.1c3.5,0,6.2-1.4,8.3-4.1c1.5-2.1,2.3-4.7,2.3-7.9c0-3.6-1-6.5-3.1-8.7
					c-2-2.1-4.5-3.1-7.6-3.1C268.7,140.4,266,141.7,263.9,144.4z"/>
				<path class="st2" d="M312.5,135c2.3-1.9,4.8-2.8,7.8-2.8c1,0,2.3,0.1,3.8,0.3v9.1c-1.6-0.1-2.8-0.2-3.7-0.2c-3,0-5,0.8-6.2,2.5
					c-1.1,1.7-1.7,4.7-1.7,9.1V172h-10.2v-39.6h10.2V135z"/>
				<path class="st2" d="M368.9,172h-10.2v-2.5c-3.4,2.6-6.9,3.8-10.7,3.8c-6.2,0-11.3-2.3-15.4-6.9c-3.6-4-5.4-8.7-5.4-14.2
					c0-6.4,2.3-11.6,6.9-15.8c4-3.5,8.6-5.3,13.9-5.3c3.7,0,7.3,1.3,10.7,3.8v-2.5h10.2V172z M339.9,144.4c-1.6,2-2.4,4.6-2.4,7.8
					c0,3.7,1,6.7,3.2,8.8c2.1,2,4.5,3.1,7.5,3.1c3.5,0,6.2-1.4,8.3-4.1c1.5-2.1,2.3-4.7,2.3-7.9c0-3.6-1-6.5-3.1-8.7
					c-2-2.1-4.5-3.1-7.6-3.1C344.7,140.4,342,141.7,339.9,144.4z"/>
				<path class="st2" d="M388.5,134.5c2.8-2.3,5.9-3.4,9.2-3.4c4.7,0,9.3,2,12.3,5.3c3.1,3.3,4.4,7.6,4.4,14.4V172h-10.2v-20.6
					c0-4.4-0.7-7.4-2-8.9c-1.3-1.4-3.1-2.1-5.3-2.1c-2.9,0-5.1,0.9-6.6,2.7c-1.2,1.5-1.8,4.5-1.8,9.1V172h-10.2v-39.6h10.2V134.5z"
					/>
				<path class="st2" d="M434.4,114.6c1.2,1.3,1.8,2.7,1.8,4.4c0,1.7-0.6,3.2-1.8,4.5c-1.3,1.2-2.7,1.8-4.5,1.8
					c-1.8,0-3.3-0.6-4.5-1.8c-1.3-1.2-1.9-2.7-1.9-4.5c0-1.7,0.6-3.2,1.9-4.4c1.3-1.2,2.8-1.8,4.6-1.8
					C431.6,112.7,433.1,113.4,434.4,114.6z"/>
				<path class="st2" d="M483.5,172h-10.2v-2.5c-3.4,2.6-6.9,3.8-10.6,3.8c-6.2,0-11.3-2.3-15.4-6.9c-3.6-4-5.4-8.7-5.4-14.2
					c0-6.4,2.3-11.6,6.9-15.8c4-3.5,8.6-5.3,13.9-5.3c3.7,0,7.3,1.3,10.6,3.8v-2.5h10.2V172z M454.6,144.4c-1.6,2-2.4,4.6-2.4,7.8
					c0,3.7,1,6.7,3.2,8.8c2.1,2,4.5,3.1,7.5,3.1c3.5,0,6.2-1.4,8.3-4.1c1.5-2.1,2.3-4.7,2.3-7.9c0-3.6-1-6.5-3.1-8.7
					c-2-2.1-4.5-3.1-7.6-3.1C459.4,140.4,456.7,141.7,454.6,144.4z"/>
				<path class="st2" d="M424.7,132.4v41.3c0,1.5-0.7,8.6-10,9.1v9.8c0,0,19.3-0.3,20.1-18.1h0v-42.1H424.7z"/>
			</g>
		</g>
	</g>
</g>
</svg>
