<?xml version="1.0" encoding="utf-8"?>
<!-- Generator: Adobe Illustrator 22.1.0, SVG Export Plug-In . SVG Version: 6.00 Build 0)  -->
<svg version="1.1" id="Capa_1" xmlns="http://www.w3.org/2000/svg" xmlns:xlink="http://www.w3.org/1999/xlink" x="0px" y="0px"
	 viewBox="0 0 525.8 232" style="enable-background:new 0 0 525.8 232;" xml:space="preserve">
<style type="text/css">
	.st0{fill:#FF9E18;}
	.st1{fill:url(#SVGID_1_);}
	.st2{fill:#FF5100;}
	.st3{fill:#96262C;}
	.st4{fill:#1A3358;}
	.st5{fill:url(#SVGID_2_);}
	.st6{fill:#010202;}
	.st7{fill:#7C79B8;}
	.st8{fill:#DE0A18;}
	.st9{fill:#17A6DF;}
	.st10{fill:#00548D;}
	.st11{fill:#FFFFFF;}
	.st12{fill:#EA560D;}
	.st13{fill:#E30613;}
	.st14{fill:#F59E00;}
	.st15{fill:url(#SVGID_3_);}
	.st16{fill:#01568C;}
	.st17{fill:#0071CE;}
</style>
<g>
	<linearGradient id="SVGID_1_" gradientUnits="userSpaceOnUse" x1="133.3978" y1="165.9195" x2="403.5805" y2="62.2915">
		<stop  offset="0" style="stop-color:#252855"/>
		<stop  offset="1" style="stop-color:#253788"/>
	</linearGradient>
	<path class="st1" d="M223.6,65.1l-42.7,102H153l-21-81.4c-1.3-5-2.4-6.9-6.3-9c-6.3-3.4-16.8-6.7-26-8.7l0.6-2.9h44.9
		c5.7,0,10.9,3.8,12.2,10.4l11.1,59l27.4-69.4H223.6z M332.9,133.8c0.1-26.9-37.2-28.4-37-40.4c0.1-3.7,3.6-7.6,11.2-8.5
		c3.8-0.5,14.2-0.9,26,4.6l4.6-21.6c-6.4-2.3-14.5-4.5-24.7-4.5c-26.1,0-44.4,13.9-44.6,33.7c-0.2,14.7,13.1,22.9,23.1,27.8
		c10.3,5,13.7,8.2,13.7,12.7c-0.1,6.9-8.2,9.9-15.8,10c-13.3,0.2-20.9-3.6-27.1-6.4l-4.8,22.3c6.2,2.8,17.5,5.3,29.3,5.4
		C314.7,168.7,332.8,155,332.9,133.8 M401.7,167.1h24.4l-21.3-102h-22.5c-5.1,0-9.3,2.9-11.2,7.5l-39.6,94.5h27.7l5.5-15.2h33.9
		L401.7,167.1z M372.3,131l13.9-38.3l8,38.3H372.3z M261.3,65.1l-21.8,102h-26.4l21.8-102H261.3z"/>
</g>
</svg>
