<?xml version="1.0" encoding="utf-8"?>
<!-- Generator: Adobe Illustrator 22.1.0, SVG Export Plug-In . SVG Version: 6.00 Build 0)  -->
<svg version="1.1" id="Capa_1" xmlns="http://www.w3.org/2000/svg" xmlns:xlink="http://www.w3.org/1999/xlink" x="0px" y="0px"
	 viewBox="0 0 526.8 233" style="enable-background:new 0 0 526.8 233;" xml:space="preserve">
<style type="text/css">
	.st0{fill:#FF9E18;}
	.st1{fill:url(#SVGID_1_);}
	.st2{fill:#FF5100;}
	.st3{fill:#96262C;}
	.st4{fill:#1A3358;}
	.st5{fill:url(#SVGID_2_);}
	.st6{fill:#010202;}
	.st7{fill:#7C79B8;}
	.st8{fill:#DE0A18;}
	.st9{fill:#17A6DF;}
	.st10{fill:#00548D;}
	.st11{fill:#FFFFFF;}
	.st12{fill:#EA560D;}
	.st13{fill:#E30613;}
	.st14{fill:#F59E00;}
	.st15{fill:url(#SVGID_3_);}
	.st16{fill:#01568C;}
	.st17{fill:#0071CE;}
</style>
<g>
	<path class="st6" d="M217.5,205.7v-11.9c0-4.5-2.9-7.5-7.5-7.5c-2.4,0-4.9,0.7-6.7,3.4c-1.3-2.1-3.4-3.4-6.3-3.4
		c-2,0-4,0.6-5.6,2.8v-2.3h-4.1v19h4.2v-10.5c0-3.3,1.8-5.1,4.6-5.1c2.8,0,4.1,1.8,4.1,5v10.6h4.2v-10.5c0-3.3,1.9-5.1,4.7-5.1
		c2.8,0,4.2,1.8,4.2,5v10.6H217.5z M240.8,196.2v-9.5h-4.2v2.3c-1.3-1.7-3.3-2.8-6-2.8c-5.3,0-9.5,4.2-9.5,10c0,5.8,4.2,10,9.5,10
		c2.7,0,4.7-1.1,6-2.8v2.3h4.2V196.2z M225.4,196.2c0-3.3,2.2-6.1,5.8-6.1c3.4,0,5.7,2.6,5.7,6.1c0,3.5-2.3,6.1-5.7,6.1
		C227.6,202.3,225.4,199.5,225.4,196.2z M329.3,186.2c1.5,0,2.8,0.3,4.1,0.8c1.2,0.5,2.3,1.2,3.2,2.1c0.9,0.9,1.6,2,2.1,3.2
		c0.5,1.2,0.8,2.6,0.8,4c0,1.5-0.2,2.8-0.8,4c-0.5,1.2-1.2,2.3-2.1,3.2c-0.9,0.9-2,1.6-3.2,2.1c-1.3,0.5-2.6,0.8-4.1,0.8
		s-2.8-0.3-4.1-0.8c-1.3-0.5-2.3-1.2-3.3-2.1c-0.9-0.9-1.6-2-2.1-3.2c-0.5-1.2-0.8-2.5-0.8-4c0-1.4,0.2-2.7,0.8-4
		c0.5-1.2,1.2-2.3,2.1-3.2c0.9-0.9,2-1.6,3.3-2.1C326.5,186.5,327.9,186.2,329.3,186.2z M329.3,190.1c-0.8,0-1.6,0.2-2.3,0.5
		c-0.8,0.3-1.4,0.7-1.9,1.2c-0.5,0.6-0.9,1.2-1.3,1.9c-0.3,0.7-0.4,1.6-0.4,2.4c0,0.9,0.2,1.7,0.4,2.5c0.3,0.7,0.7,1.4,1.3,1.9
		c0.5,0.5,1.1,1,1.9,1.2c0.7,0.3,1.5,0.5,2.3,0.5c0.8,0,1.6-0.2,2.4-0.5c0.7-0.3,1.4-0.7,1.9-1.2c0.5-0.5,1-1.2,1.3-1.9
		c0.3-0.8,0.4-1.6,0.4-2.5c0-0.9-0.1-1.7-0.4-2.4c-0.3-0.8-0.7-1.4-1.3-1.9c-0.5-0.5-1.2-0.9-1.9-1.2
		C331,190.3,330.2,190.1,329.3,190.1z M263.3,196.2c-0.1-5.9-3.7-10-9-10c-5.6,0-9.5,4-9.5,10c0,6.1,4.1,10,9.8,10
		c2.8,0,5.5-0.7,7.8-2.7l-2-3.1c-1.6,1.3-3.6,2-5.5,2c-2.7,0-5.1-1.2-5.7-4.7h14.1C263.3,197.3,263.3,196.8,263.3,196.2z
		 M249.2,194.5c0.4-2.8,2.1-4.6,5.1-4.6c2.7,0,4.4,1.7,4.8,4.6H249.2z M280.8,191.6c-1.2-0.7-3.5-1.6-5.9-1.6
		c-2.2,0-3.6,0.8-3.6,2.2c0,1.3,1.4,1.6,3.2,1.9l2,0.3c4.1,0.6,6.6,2.4,6.6,5.7c0,3.6-3.2,6.2-8.7,6.2c-3.1,0-6-0.8-8.2-2.4l1.9-3.2
		c1.4,1.1,3.5,2,6.3,2c2.8,0,4.3-0.8,4.3-2.3c0-1.1-1.1-1.7-3.3-2l-2-0.3c-4.2-0.6-6.6-2.5-6.6-5.6c0-3.8,3.1-6.1,7.9-6.1
		c3,0,5.8,0.7,7.8,2L280.8,191.6z M300.6,190.5h-6.7v8.6c0,1.9,0.7,3.2,2.7,3.2c1.1,0,2.4-0.3,3.7-1.1l1.2,3.6
		c-1.3,0.9-3.4,1.5-5.2,1.5c-4.9,0-6.6-2.6-6.6-7v-8.7h-3.9v-3.8h3.9v-5.8h4.2v5.8h6.7V190.5z M315,186.2c0.8,0,2,0.1,2.9,0.5
		l-1.2,3.9c-0.9-0.4-1.8-0.5-2.6-0.5c-2.7,0-4,1.7-4,4.9v10.7h-4.2v-19h4.1v2.3C311,187.3,312.6,186.2,315,186.2L315,186.2z
		 M343.6,202.9c0.3,0,0.5,0,0.8,0.1c0.2,0.1,0.4,0.2,0.6,0.4c0.2,0.2,0.3,0.4,0.4,0.6c0.1,0.2,0.1,0.5,0.1,0.7
		c0,0.3-0.1,0.5-0.1,0.8c-0.1,0.2-0.3,0.4-0.4,0.6c-0.2,0.2-0.4,0.3-0.6,0.4c-0.2,0.1-0.5,0.1-0.8,0.1c-0.3,0-0.5-0.1-0.7-0.1
		c-0.2-0.1-0.4-0.2-0.6-0.4c-0.2-0.2-0.3-0.4-0.4-0.6c-0.1-0.3-0.1-0.5-0.1-0.8c0-0.3,0.1-0.5,0.1-0.7c0.1-0.2,0.2-0.4,0.4-0.6
		c0.2-0.2,0.4-0.3,0.6-0.4C343,203,343.3,202.9,343.6,202.9z M343.6,206.3c0.2,0,0.4,0,0.6-0.1c0.2-0.1,0.3-0.2,0.5-0.3
		c0.1-0.1,0.2-0.3,0.3-0.5c0.1-0.2,0.1-0.4,0.1-0.6c0-0.2,0-0.4-0.1-0.6c-0.1-0.2-0.2-0.3-0.3-0.5c-0.1-0.1-0.3-0.2-0.5-0.3
		c-0.2-0.1-0.4-0.1-0.6-0.1c-0.2,0-0.4,0-0.5,0.1c-0.2,0.1-0.4,0.2-0.5,0.3c-0.1,0.1-0.2,0.3-0.3,0.5c-0.1,0.2-0.1,0.4-0.1,0.6
		c0,0.2,0,0.4,0.1,0.6c0.1,0.2,0.2,0.3,0.3,0.5c0.1,0.1,0.3,0.3,0.5,0.3C343.2,206.3,343.4,206.3,343.6,206.3z M343.7,203.9
		c0.2,0,0.4,0.1,0.5,0.2c0.1,0.1,0.2,0.2,0.2,0.4c0,0.1,0,0.3-0.1,0.4c-0.1,0.1-0.3,0.2-0.4,0.2l0.6,0.7H344l-0.5-0.7h-0.2v0.7h-0.4
		v-1.8H343.7z M343.3,204.3v0.5h0.4c0.1,0,0.2,0,0.2-0.1c0.1-0.1,0.1-0.1,0.1-0.2c0-0.1,0-0.1-0.1-0.1c-0.1-0.1-0.1-0.1-0.2-0.1
		H343.3z"/>
	<g id="XMLID_150_">
		<rect x="232" y="41.6" class="st7" width="62.7" height="112.7"/>
		<path id="XMLID_154_" class="st8" d="M236,98c0-22.9,10.7-43.2,27.4-56.4c-12.2-9.6-27.6-15.3-44.3-15.3
			c-39.6,0-71.7,32.1-71.7,71.7c0,39.6,32.1,71.7,71.7,71.7c16.7,0,32.1-5.7,44.3-15.3C246.7,141.2,236,120.8,236,98z"/>
		<path class="st9" d="M372.5,142.4v-2.3h0.9v-0.5h-2.4v0.5h0.9v2.3H372.5z M377.1,142.4v-2.8h-0.7l-0.8,1.9l-0.9-1.9H374v2.8h0.5
			v-2.1l0.8,1.8h0.5l0.8-1.8v2.1H377.1z"/>
		<path class="st9" d="M379.4,98c0,39.6-32.1,71.7-71.7,71.7c-16.7,0-32.1-5.7-44.3-15.3c16.7-13.1,27.4-33.5,27.4-56.4
			c0-22.9-10.7-43.2-27.4-56.4c12.2-9.6,27.6-15.3,44.3-15.3C347.3,26.3,379.4,58.4,379.4,98z"/>
	</g>
</g>
</svg>
