<?xml version="1.0" encoding="utf-8"?>
<!-- Generator: Adobe Illustrator 22.1.0, SVG Export Plug-In . SVG Version: 6.00 Build 0)  -->
<svg version="1.1" id="Capa_1" xmlns="http://www.w3.org/2000/svg" xmlns:xlink="http://www.w3.org/1999/xlink" x="0px" y="0px"
	 viewBox="0 0 525.3 233" style="enable-background:new 0 0 525.3 233;" xml:space="preserve">
<style type="text/css">
	.st0{fill:#FF9E18;}
	.st1{fill:url(#SVGID_1_);}
	.st2{fill:#FF5100;}
	.st3{fill:#96262C;}
	.st4{fill:#1A3358;}
	.st5{fill:url(#SVGID_2_);}
	.st6{fill:#010202;}
	.st7{fill:#7C79B8;}
	.st8{fill:#DE0A18;}
	.st9{fill:#17A6DF;}
	.st10{fill:#00548D;}
	.st11{fill:#FFFFFF;}
	.st12{fill:#EA560D;}
	.st13{fill:#E30613;}
	.st14{fill:#F59E00;}
	.st15{fill:url(#SVGID_3_);}
	.st16{fill:#01568C;}
	.st17{fill:#0071CE;}
</style>
<g>
	<path class="st6" d="M191.3,206.2v-12c0-4.5-2.7-7.5-7.3-7.5c-2.4,0-4.9,0.7-6.7,3.4c-1.3-2.1-3.4-3.4-6.3-3.4
		c-2,0-4.2,0.6-5.7,2.8v-2.3h-3.8v19h3.9v-10.9c0-3.3,2-5.1,4.8-5.1c2.8,0,4.3,1.8,4.3,5v10.9h3.9v-10.9c0-3.3,2.1-5.1,4.8-5.1
		c2.8,0,4.3,1.8,4.3,5v10.9H191.3z M253.4,187.2h-6.9v-5.8h-3.9v5.8h-4v3.5h4v9c0,4.4,1.6,7.1,6.5,7.1c1.8,0,3.9-0.6,5.2-1.5
		l-1.2-3.4c-1.3,0.7-2.6,1.1-3.7,1.1c-2.1,0-2.9-1.3-2.9-3.2v-9.1h6.9V187.2z M288.8,186.7c-2.4,0-4.1,1.1-5.2,2.8v-2.3h-3.8v19h3.8
		v-10.7c0-3.2,1.5-5.2,4.2-5.2c0.8,0,1.7,0.1,2.6,0.5l1.2-3.6C290.8,186.8,289.6,186.7,288.8,186.7 M235.3,188.7c-2-1.3-4.8-2-7.8-2
		c-4.8,0-7.8,2.3-7.8,6.1c0,3.1,2.1,5,6.4,5.6l2,0.3c2.3,0.3,3.5,1.1,3.5,2.2c0,1.5-1.7,2.4-4.5,2.4c-3,0-4.9-0.9-6.3-2l-1.9,3
		c2.8,2.1,6.2,2.5,8.2,2.5c5.5,0,8.5-2.6,8.5-6.2c0-3.4-2.3-5.1-6.5-5.7l-2-0.3c-1.8-0.2-3.4-0.8-3.4-2.1c0-1.4,1.5-2.4,3.8-2.4
		c2.4,0,4.8,0.9,6,1.6L235.3,188.7z M293.2,196.7c0,5.8,3.9,10,10,10c2.9,0,4.8-0.6,6.9-2.3l-2-3c-1.6,1.1-3.2,1.7-5,1.7
		c-3.3,0-5.9-2.6-5.9-6.4c0-3.8,2.6-6.4,5.9-6.5c1.8,0,3.4,0.6,5,1.7l2-3c-2.1-1.6-4-2.3-6.9-2.3C297,186.7,293.2,190.9,293.2,196.7
		 M266.4,186.7c-5.6,0-9.4,4-9.4,10c0,6.1,4,10.1,9.7,10.1c2.9,0,5.5-0.7,7.8-2.7l-2-2.8c-1.6,1.3-3.7,2-5.6,2c-2.7,0-5.4-1.5-5.9-5
		h14.2c0-0.5,0.1-1,0.1-1.6C275.3,190.7,271.7,186.7,266.4,186.7 M266.3,190.2c2.8,0,4.7,1.8,5,4.8H261
		C261.4,192.2,263.2,190.2,266.3,190.2 M214.7,196.7v-9.5h-3.8v2.3c-1.3-1.7-3.5-2.8-6.2-2.8c-5.3,0-9.4,4.2-9.4,10
		c0,5.8,4.1,10,9.4,10c2.7,0,4.8-1.1,6.2-2.8v2.3h3.8V196.7z M199.2,196.7c0-3.6,2.3-6.5,6-6.5c3.5,0,5.8,2.7,5.8,6.5
		c0,3.7-2.3,6.4-5.8,6.4C201.5,203.1,199.2,200.3,199.2,196.7 M346.4,186.7c-2.4,0-4.1,1.1-5.2,2.8v-2.3h-3.8v19h3.8v-10.7
		c0-3.2,1.5-5.2,4.2-5.2c0.8,0,1.7,0.1,2.6,0.5l1.3-3.6C348.4,186.8,347.2,186.7,346.4,186.7 M377.1,203.4c0.3,0,0.5,0.1,0.8,0.2
		c0.2,0.1,0.4,0.2,0.6,0.4c0.2,0.2,0.3,0.4,0.4,0.6c0.1,0.2,0.2,0.5,0.2,0.7c0,0.2-0.1,0.5-0.2,0.7c-0.1,0.2-0.2,0.4-0.4,0.6
		c-0.2,0.2-0.4,0.3-0.6,0.4c-0.2,0.1-0.5,0.2-0.8,0.2c-0.3,0-0.5,0-0.8-0.2c-0.2-0.1-0.4-0.2-0.6-0.4c-0.2-0.2-0.3-0.4-0.4-0.6
		c-0.1-0.2-0.1-0.5-0.1-0.7c0-0.3,0.1-0.5,0.1-0.7c0.1-0.2,0.2-0.4,0.4-0.6c0.2-0.2,0.4-0.3,0.6-0.4
		C376.6,203.5,376.8,203.4,377.1,203.4 M377.1,206.8c0.2,0,0.4-0.1,0.6-0.1c0.2-0.1,0.3-0.2,0.5-0.3c0.1-0.1,0.2-0.3,0.3-0.5
		c0.1-0.2,0.1-0.4,0.1-0.6c0-0.2,0-0.4-0.1-0.6c-0.1-0.2-0.2-0.3-0.3-0.5c-0.1-0.1-0.3-0.2-0.5-0.3c-0.2-0.1-0.4-0.1-0.6-0.1
		c-0.2,0-0.4,0-0.6,0.1c-0.2,0.1-0.3,0.2-0.5,0.3c-0.1,0.1-0.3,0.3-0.3,0.5c-0.1,0.2-0.1,0.4-0.1,0.6c0,0.2,0,0.4,0.1,0.6
		c0.1,0.2,0.2,0.3,0.3,0.5c0.1,0.1,0.3,0.2,0.5,0.3C376.7,206.8,376.9,206.8,377.1,206.8 M377.2,204.4c0.2,0,0.4,0.1,0.5,0.2
		c0.1,0.1,0.2,0.2,0.2,0.4c0,0.1,0,0.3-0.1,0.4c-0.1,0.1-0.2,0.2-0.4,0.2l0.6,0.6h-0.5l-0.5-0.6h-0.2v0.6h-0.4v-1.7H377.2z
		 M376.8,204.8v0.4h0.4c0.1,0,0.2,0,0.2,0c0.1,0,0.1-0.1,0.1-0.2c0-0.1,0-0.1-0.1-0.2c-0.1,0-0.1-0.1-0.2-0.1H376.8z M331.7,196.7
		v-9.5h-3.8v2.3c-1.3-1.7-3.5-2.8-6.2-2.8c-5.3,0-9.4,4.2-9.4,10c0,5.8,4.1,10,9.4,10c2.7,0,4.9-1.1,6.2-2.8v2.3h3.8V196.7z
		 M316.3,196.7c0-3.6,2.3-6.5,6-6.5c3.5,0,5.8,2.7,5.8,6.5c0,3.7-2.3,6.4-5.8,6.4C318.5,203.1,316.3,200.3,316.3,196.7 M370.2,196.7
		v-17.2h-3.8v10c-1.3-1.7-3.5-2.8-6.2-2.8c-5.4,0-9.4,4.2-9.4,10c0,5.8,4.1,10,9.4,10c2.7,0,4.8-1.1,6.2-2.8v2.3h3.8V196.7z
		 M354.8,196.7c0-3.6,2.3-6.5,5.9-6.5c3.5,0,5.8,2.7,5.8,6.5c0,3.7-2.3,6.4-5.8,6.4C357,203.1,354.8,200.3,354.8,196.7"/>
	<rect x="230.9" y="42.1" class="st12" width="69" height="112.7"/>
	<path class="st13" d="M238,98.5c0-22.9,10.7-43.2,27.4-56.4c-12.2-9.6-27.6-15.3-44.3-15.3c-39.6,0-71.7,32.1-71.7,71.7
		c0,39.6,32.1,71.7,71.7,71.7c16.7,0,32.1-5.7,44.3-15.3C248.7,141.7,238,121.3,238,98.5"/>
	<path class="st14" d="M374.5,142.9v-2.3h0.9v-0.5h-2.4v0.5h0.9v2.3H374.5z M379.1,142.9v-2.8h-0.7l-0.8,1.9l-0.9-1.9H376v2.8h0.5
		v-2.1l0.8,1.8h0.5l0.8-1.8v2.1H379.1z"/>
	<path class="st14" d="M381.4,98.5c0,39.6-32.1,71.7-71.7,71.7c-16.7,0-32.1-5.7-44.3-15.3c16.7-13.1,27.4-33.5,27.4-56.4
		c0-22.9-10.7-43.2-27.4-56.4c12.2-9.6,27.6-15.3,44.3-15.3C349.3,26.8,381.4,58.9,381.4,98.5"/>
</g>
</svg>
