<?xml version="1.0" encoding="utf-8"?>
<!-- Generator: Adobe Illustrator 22.1.0, SVG Export Plug-In . SVG Version: 6.00 Build 0)  -->
<svg version="1.1" id="Capa_1" xmlns="http://www.w3.org/2000/svg" xmlns:xlink="http://www.w3.org/1999/xlink" x="0px" y="0px"
	 viewBox="0 0 526.8 233" style="enable-background:new 0 0 526.8 233;" xml:space="preserve">
<style type="text/css">
	.st0{fill:#FF9E18;}
	.st1{fill:url(#SVGID_1_);}
	.st2{fill:#FF5100;}
	.st3{fill:#96262C;}
	.st4{fill:#1A3358;}
	.st5{fill:url(#SVGID_2_);}
	.st6{fill:#010202;}
	.st7{fill:#7C79B8;}
	.st8{fill:#DE0A18;}
	.st9{fill:#17A6DF;}
	.st10{fill:#00548D;}
	.st11{fill:#FFFFFF;}
	.st12{fill:#EA560D;}
	.st13{fill:#E30613;}
	.st14{fill:#F59E00;}
	.st15{fill:url(#SVGID_3_);}
	.st16{fill:#01568C;}
	.st17{fill:#0071CE;}
</style>
<g>
	<polygon class="st11" points="360,213.4 264.7,213.4 166.2,213.4 166.2,115.3 166.2,19.6 262.7,19.6 360,19.6 360,115.3 	"/>
	<path class="st17" d="M352.7,156.5H289l-4-5.3v5.3h-13.8v-8.4c-1.7,0.7-3.7,1-5.9,1H263v7.3h-20.5l-3.1-4.4l-3,4.4h-33.3v-32.1
		h33.4l3.1,4.3l3.1-4.3H360V19.6H166.2v78.7l6.7-15.7h13.4l3.5,8v-8h16.4l2.2,6.4l2.2-6.4h71v3c2.7-2.1,6.1-3,9.9-3h22.1l3.5,8v-8
		h13.2l3.9,6v-6h14.2v32.1h-13.9l-3.6-5.6v5.6h-19.8l-1.9-4.8h-4.2l-1.9,4.8H291c-3.1,0-6.7-0.6-9.5-2.8v2.8h-20.1l-4.1-5.3v5.3
		h-73.7l-1.9-4.8h-4.2l-1.9,4.8h-9.6v98.7H360v-59C358.1,155.7,355.6,156.5,352.7,156.5"/>
	<path class="st17" d="M352.7,146.7h-11.8v5.1h11.8c5,0,7.9-3,7.9-7.4c0-4.1-2.6-6.6-7.1-6.6h-5.4c-1.2,0-2.1-0.8-2.1-1.9
		c0-1.1,0.8-1.9,2.1-1.9h9.9l2.3-5.1h-12c-5,0-7.9,3-7.9,7.2c0,4.3,2.8,6.8,7.1,6.8h5.4c1.2,0,2.1,0.8,2.1,1.9
		C354.8,146,353.9,146.7,352.7,146.7 M331.8,146.7H320v5.1h11.8c5,0,7.9-3,7.9-7.4c0-4.1-2.6-6.6-7.1-6.6h-5.4
		c-1.2,0-2.1-0.8-2.1-1.9c0-1.1,0.8-1.9,2.1-1.9h9.9l2.3-5.1h-12c-5,0-7.9,3-7.9,7.2c0,4.3,2.8,6.8,7.2,6.8h5.4
		c1.2,0,2.1,0.8,2.1,1.9C333.9,146,333,146.7,331.8,146.7 M317.4,134.1V129h-18.6v22.8h18.6v-5.1h-12.8v-3.9h12.5v-5h-12.5v-3.7
		H317.4z M288,134.1c1.8,0,2.7,1.1,2.7,2.3c0,1.3-0.9,2.3-2.7,2.3h-6.3v-4.7H288z M281.7,143.8h2.3l6.8,8.1h7.1l-7.4-8.3
		c3.8-0.8,6-3.6,6-7.1c0-4.4-3-7.4-7.9-7.4h-12.7v22.8h5.8V143.8z M267.6,136.7c0,1.4-0.9,2.5-2.7,2.5h-6.5v-5.2h6.5
		C266.6,134.1,267.6,135.3,267.6,136.7 M252.6,129v22.8h5.8v-7.4h6.9c5,0,8.1-3.3,8.1-7.7c0-4.6-3-7.7-7.9-7.7H252.6z M244.8,151.8
		h7.3l-9.2-11.5l9.1-11.3H245l-5.4,7l-5.4-7h-7.3l9.1,11.5l-9.1,11.4h7.1l5.4-7.1L244.8,151.8z M226.5,134.1V129h-18.6v22.8h18.6
		v-5.1h-12.8v-3.9h12.5v-5h-12.5v-3.7H226.5z"/>
	<path class="st17" d="M336.2,110.1h7.1V87.3h-5.8v14.2l-9.1-14.2H321v22.8h5.8V95.4L336.2,110.1z M303.6,100.5l3.2-7.8l3.2,7.8
		H303.6z M313.9,110.1h6.5l-9.8-22.8h-7.5l-9.8,22.8h6.4l1.9-4.7H312L313.9,110.1z M290.4,110.1h0.5l2.4-5.1h-1.9
		c-3.7,0-5.8-2.2-5.8-6.1v-0.3c0-3.4,1.9-6,5.7-6h6.1v-5.3h-6.6c-7.2,0-11,4.8-11,11.3v0.3C279.8,105.9,283.8,110.1,290.4,110.1
		 M271.2,110.1h5.8V98.7V87.3h-5.8v11.4V110.1z M260.3,92.4c1.8,0,2.7,1.1,2.7,2.3c0,1.3-0.9,2.3-2.7,2.3H254v-4.7H260.3z M254,102
		h2.3l6.8,8.1h7.1l-7.4-8.3c3.8-0.8,6-3.6,6-7.1c0-4.4-3-7.4-7.9-7.4h-12.7v22.8h5.8V102z M245,92.4v-5.1h-18.6v22.8H245V105h-12.8
		v-3.9h12.5v-5h-12.5v-3.7H245z M205.7,110.1h5.1l6-16.9v16.9h5.7V87.3h-9.1l-5.1,14.6l-5.1-14.6h-9.2v22.8h5.7V93.2L205.7,110.1z
		 M176.5,100.5l3.2-7.8l3.2,7.8H176.5z M186.8,110.1h6.5l-9.8-22.8H176l-9.8,22.8h6.4l1.9-4.7h10.4L186.8,110.1z"/>
</g>
</svg>
