<svg width="526" height="232" viewBox="0 0 526 232" fill="none" xmlns="http://www.w3.org/2000/svg">
<path d="M149.214 70.3294C145.364 69.0921 141.154 70.486 138.799 73.7743L106.349 119.095L113.531 129.123C114.875 130.741 115.683 132.819 115.683 135.085C115.683 136.866 115.182 138.53 114.317 139.946L137.055 108.183V153.75C137.055 158.889 141.222 163.059 146.364 163.059C151.507 163.059 155.674 158.892 155.674 153.75V79.1934C155.677 75.1468 153.064 71.5668 149.214 70.3294Z" fill="#00B6AB"/>
<path d="M66.3337 163.065C61.1909 163.065 57.0245 158.899 57.0245 153.756V125.755C57.0245 120.612 61.1909 116.445 66.3337 116.445C71.4765 116.445 75.6429 120.612 75.6429 125.755V153.756C75.6429 158.896 71.4734 163.065 66.3337 163.065Z" fill="#00C49A"/>
<g opacity="0.4">
<path opacity="0.4" d="M66.3337 135.088C71.4886 135.088 75.6675 130.91 75.6675 125.755C75.6675 120.6 71.4886 116.421 66.3337 116.421C61.1789 116.421 57 120.6 57 125.755C57 130.91 61.1789 135.088 66.3337 135.088Z" fill="white"/>
</g>
<path opacity="0.4" d="M146.368 163.065C151.51 163.065 155.677 158.899 155.677 153.756V153.114C155.345 148.26 151.305 144.422 146.368 144.422C141.43 144.422 137.39 148.257 137.058 153.111V153.756C137.058 158.896 141.225 163.065 146.368 163.065Z" fill="white"/>
<path opacity="0.4" d="M146.368 88.5272C151.305 88.5272 155.345 84.6923 155.677 79.8351V79.1934C155.677 75.1498 153.064 71.5668 149.214 70.3294C145.364 69.0921 141.154 70.486 138.799 73.7743L138.4 74.3331C137.534 75.7485 137.037 77.4126 137.037 79.1934C137.034 84.3485 141.212 88.5272 146.368 88.5272Z" fill="white"/>
<path d="M113.531 129.123L106.352 119.095L73.902 73.7743C70.9085 69.5926 65.0933 68.6316 60.9146 71.6251C56.7329 74.6187 55.7719 80.4338 58.7654 84.6125L98.3816 139.949C100.021 142.632 102.978 144.422 106.352 144.422C111.507 144.422 115.686 140.243 115.686 135.088C115.683 132.819 114.875 130.741 113.531 129.123Z" fill="#00C49A"/>
<g opacity="0.4">
<path opacity="0.4" d="M106.349 144.422C111.504 144.422 115.683 140.243 115.683 135.088C115.683 129.934 111.504 125.755 106.349 125.755C101.194 125.755 97.0153 129.934 97.0153 135.088C97.0153 140.243 101.194 144.422 106.349 144.422Z" fill="white"/>
</g>
<path d="M216.969 164.017C217.319 164.057 217.672 164.078 218.032 164.078C218.391 164.078 218.741 164.057 219.091 164.017C218.738 164.023 218.385 164.029 218.032 164.029C217.675 164.029 217.322 164.023 216.969 164.017Z" fill="#FF7BAC"/>
<path d="M218.805 69.0338C218.55 69.0123 218.292 69 218.031 69C212.876 69 208.698 73.1787 208.698 78.3337C208.698 83.4888 212.876 87.6675 218.031 87.6675C218.216 87.6675 218.4 87.6613 218.581 87.6491C234.255 87.9438 246.914 100.784 246.914 116.525C246.914 124.259 243.914 131.521 238.471 136.964C233.03 142.405 225.775 145.405 218.047 145.408C223.196 145.417 227.365 149.593 227.365 154.741C227.365 159.537 223.745 163.489 219.091 164.014C231.403 163.747 242.926 158.843 251.636 150.13C260.598 141.168 265.532 129.233 265.532 116.525C265.535 90.5935 244.642 69.4513 218.805 69.0338Z" fill="#00A7BD"/>
<path d="M218.032 145.411C218.025 145.411 218.022 145.411 218.016 145.411C202.097 145.402 189.146 132.448 189.146 116.528C189.146 108.862 192.158 101.579 197.629 96.0249C201.237 92.362 201.191 86.467 197.528 82.8594C193.865 79.2518 187.97 79.2978 184.362 82.9607C175.443 92.0212 170.531 103.94 170.531 116.528C170.531 142.365 191.265 163.449 216.969 164.017C217.319 164.057 217.672 164.078 218.032 164.078C223.187 164.078 227.365 159.9 227.365 154.744C227.365 149.589 223.187 145.411 218.032 145.411Z" fill="#00B6AB"/>
<g opacity="0.4">
<path opacity="0.4" d="M218.031 164.078C223.186 164.078 227.365 159.899 227.365 154.745C227.365 149.59 223.186 145.411 218.031 145.411C212.877 145.411 208.698 149.59 208.698 154.745C208.698 159.899 212.877 164.078 218.031 164.078Z" fill="white"/>
</g>
<g opacity="0.4">
<path opacity="0.4" d="M218.031 87.6675C223.186 87.6675 227.365 83.4886 227.365 78.3337C227.365 73.1789 223.186 69 218.031 69C212.877 69 208.698 73.1789 208.698 78.3337C208.698 83.4886 212.877 87.6675 218.031 87.6675Z" fill="white"/>
</g>
<path d="M349.551 81.622C340.948 73.9432 329.266 69.8842 315.769 69.8842H287.875C282.735 69.8842 278.566 74.0507 278.566 79.1934C278.566 84.3362 282.732 88.5026 287.875 88.5026H315.769C324.62 88.5026 332.017 90.9281 337.156 95.5121C342.557 100.332 345.299 107.403 345.299 116.528C345.299 125.623 342.554 132.669 337.138 137.471C331.992 142.033 324.605 144.447 315.769 144.447H297.184V152.77C297.218 153.087 297.233 153.406 297.233 153.731C297.233 158.886 293.054 163.065 287.899 163.065H315.769C329.226 163.065 340.887 159.031 349.49 151.401C358.925 143.031 363.914 130.974 363.914 116.528C363.911 102.076 358.946 90.007 349.551 81.622Z" fill="#0099CE"/>
<path d="M297.181 152.767V144.444V107.195C297.181 102.052 293.015 97.8855 287.872 97.8855C282.732 97.8855 278.563 102.052 278.563 107.195V153.731C278.563 158.883 282.735 163.059 287.884 163.065C287.881 163.065 287.875 163.065 287.872 163.065H287.896C293.051 163.065 297.23 158.886 297.23 153.731C297.23 153.406 297.215 153.083 297.181 152.767Z" fill="#00A7BD"/>
<g opacity="0.4">
<path opacity="0.4" d="M287.872 88.5026C293.013 88.5026 297.181 84.3347 297.181 79.1934C297.181 74.0521 293.013 69.8842 287.872 69.8842C282.731 69.8842 278.563 74.0521 278.563 79.1934C278.563 84.3347 282.731 88.5026 287.872 88.5026Z" fill="white"/>
</g>
<g opacity="0.4">
<path opacity="0.4" d="M287.896 163.065C293.051 163.065 297.23 158.886 297.23 153.731C297.23 148.576 293.051 144.398 287.896 144.398C282.741 144.398 278.563 148.576 278.563 153.731C278.563 158.886 282.741 163.065 287.896 163.065Z" fill="white"/>
</g>
<path d="M422.643 69.0338C422.388 69.0123 422.13 69 421.869 69C416.714 69 412.536 73.1787 412.536 78.3337C412.536 83.4888 416.714 87.6675 421.869 87.6675C422.053 87.6675 422.238 87.6613 422.419 87.6491C438.093 87.9438 450.752 100.784 450.752 116.525C450.752 124.259 447.752 131.521 442.308 136.964C436.868 142.405 429.613 145.405 421.885 145.408C427.034 145.417 431.203 149.593 431.203 154.741C431.203 159.537 427.583 163.489 422.929 164.014C435.24 163.747 446.763 158.843 455.474 150.13C464.436 141.168 469.37 129.233 469.37 116.525C469.373 90.5935 448.48 69.4513 422.643 69.0338Z" fill="#008AE0"/>
<path d="M421.869 145.411C421.863 145.411 421.86 145.411 421.854 145.411C405.934 145.402 392.984 132.448 392.984 116.528C392.984 108.862 395.996 101.579 401.467 96.0249C405.075 92.362 405.029 86.467 401.366 82.8594C397.703 79.2518 391.808 79.2978 388.2 82.9607C379.281 92.0212 374.369 103.94 374.369 116.528C374.369 142.365 395.102 163.449 420.807 164.017C421.157 164.057 421.51 164.078 421.869 164.078C427.024 164.078 431.203 159.9 431.203 154.744C431.203 149.589 427.024 145.411 421.869 145.411Z" fill="#0099CE"/>
<g opacity="0.4">
<path opacity="0.4" d="M421.869 164.078C427.024 164.078 431.203 159.899 431.203 154.745C431.203 149.59 427.024 145.411 421.869 145.411C416.714 145.411 412.536 149.59 412.536 154.745C412.536 159.899 416.714 164.078 421.869 164.078Z" fill="white"/>
</g>
<g opacity="0.4">
<path opacity="0.4" d="M421.869 87.6675C427.024 87.6675 431.203 83.4886 431.203 78.3337C431.203 73.1789 427.024 69 421.869 69C416.714 69 412.536 73.1789 412.536 78.3337C412.536 83.4886 416.714 87.6675 421.869 87.6675Z" fill="white"/>
</g>
</svg>
