<svg width="526" height="232" viewBox="0 0 526 232" fill="none" xmlns="http://www.w3.org/2000/svg">
<path fill-rule="evenodd" clip-rule="evenodd" d="M360.934 119.746C368.263 119.746 373.103 121.417 377.458 124.481C378.495 125.247 379.671 126.71 379.671 128.799C379.671 131.723 377.32 134.091 374.416 134.091C372.895 134.091 371.927 133.534 371.166 132.977C368.263 130.888 365.151 129.634 360.588 129.634C352.845 129.634 346.692 136.528 346.692 144.815V144.955C346.692 153.868 352.775 160.414 361.349 160.414C365.221 160.414 368.678 159.438 371.374 157.489V150.525H362.422C359.864 150.525 357.79 148.506 357.79 145.929C357.79 143.353 359.864 141.264 362.422 141.264H376.352C379.325 141.264 381.675 143.631 381.675 146.626V158.464C381.675 161.598 380.5 163.756 377.942 165.288C374.001 167.726 368.263 170.163 361.003 170.163C345.931 170.163 335.56 159.509 335.56 145.094V144.955C335.56 131.097 346.277 119.746 360.934 119.746ZM413.35 119.746C428.283 119.746 439 130.957 439 144.815V144.955C439 158.812 428.145 170.163 413.211 170.163C398.277 170.163 387.561 158.951 387.561 145.094V144.955C387.561 131.097 398.416 119.746 413.35 119.746ZM265.063 120.581C276.609 120.581 283.592 127.476 283.592 137.434V137.573C283.592 148.854 274.88 154.704 264.025 154.704H255.936V164.383C255.936 167.378 253.586 169.745 250.613 169.745C247.64 169.745 245.289 167.378 245.289 164.383V125.943C245.289 122.95 247.64 120.581 250.613 120.581H265.063ZM308.814 119.815C311.718 119.815 313.792 121.417 314.967 124.064L331.837 162.433C332.183 163.199 332.39 163.895 332.39 164.592C332.39 167.448 330.178 169.745 327.343 169.745C324.854 169.745 323.195 168.283 322.227 166.055L318.977 158.395H297.683L294.295 166.402C293.396 168.492 291.599 169.745 289.386 169.745C286.62 169.745 284.477 167.517 284.477 164.731C284.477 163.965 284.754 163.199 285.1 162.433L301.969 124.064C303.145 121.417 305.288 119.815 308.192 119.815H308.814ZM413.211 129.634C404.638 129.634 398.692 136.459 398.692 144.815V144.955C398.692 153.31 404.776 160.274 413.35 160.274C421.923 160.274 427.869 153.45 427.869 145.094V144.955C427.869 136.598 421.785 129.634 413.211 129.634ZM308.33 132.838L301.624 148.923H315.037L308.33 132.838ZM264.164 130.261H255.936V145.163H264.371C269.695 145.163 272.806 141.96 272.806 137.782V137.643C272.806 132.837 269.488 130.261 264.164 130.261ZM306.74 61.1818C321.674 61.1818 332.39 72.3927 332.39 86.2501V86.3904C332.39 100.248 321.535 111.598 306.601 111.598C291.668 111.598 280.951 100.387 280.951 86.5293V86.3904C280.951 72.5321 291.806 61.1818 306.74 61.1818ZM413.35 61.1818C428.283 61.1818 439 72.3927 439 86.2501V86.3904C439 100.248 428.145 111.598 413.211 111.598C398.278 111.598 387.561 100.387 387.561 86.5293V86.3904C387.561 72.5321 398.416 61.1818 413.35 61.1818ZM277.552 62.017C280.248 62.017 282.46 64.2454 282.46 66.9615C282.46 69.6766 280.248 71.9055 277.552 71.9055H266.432V105.819C266.432 108.813 264.081 111.18 261.108 111.18C258.135 111.18 255.785 108.813 255.785 105.819V71.9055H244.257C241.561 71.9055 239.349 69.6766 239.349 66.9615C239.349 64.2454 241.561 62.017 244.257 62.017H277.552ZM357.201 62.0171C372.411 62.0171 382.92 72.5322 382.92 86.2502V86.3901C382.92 100.108 372.411 110.763 357.201 110.763H343.65C340.677 110.763 338.326 108.395 338.326 105.401V67.3792C338.326 64.3843 340.677 62.0171 343.65 62.0171H357.201ZM306.601 71.0697C298.029 71.0697 292.082 77.8941 292.082 86.2501V86.3904C292.082 94.7459 298.166 101.71 306.74 101.71C315.313 101.71 321.259 94.8852 321.259 86.5293V86.3904C321.259 78.0335 315.174 71.0697 306.601 71.0697ZM413.211 71.0697C404.638 71.0697 398.692 77.8941 398.692 86.2501V86.3904C398.692 94.7459 404.776 101.71 413.35 101.71C421.923 101.71 427.869 94.8852 427.869 86.5293V86.3904C427.869 78.0335 421.785 71.0697 413.211 71.0697ZM357.201 71.6965H348.973V101.083H357.201C365.912 101.083 371.789 95.1636 371.789 86.5295V86.3901C371.789 77.7549 365.912 71.6965 357.201 71.6965Z" fill="#323E48"/>
<path fill-rule="evenodd" clip-rule="evenodd" d="M100.587 48H209.284C216.788 48 222.871 54.127 222.871 61.6851V171.166C222.871 178.724 216.788 184.851 209.284 184.851H100.587C93.0832 184.851 87 178.724 87 171.166V61.6851C87 54.127 93.0832 48 100.587 48Z" fill="#DA167B"/>
<path fill-rule="evenodd" clip-rule="evenodd" d="M180.499 81.217H110.442C106.694 81.217 103.619 84.3144 103.619 88.0889C103.619 91.8629 106.694 94.9608 110.442 94.9608H126.463V144.181C126.463 148.343 129.73 151.634 133.862 151.634C137.993 151.634 141.261 148.343 141.261 144.181V99.669L137.674 96.4989C136.805 95.8616 136.911 94.9537 138.09 94.9537H179.25C186.649 94.9537 191.262 98.2506 191.262 104.93V105.123C191.262 110.93 186.938 115.346 179.538 115.346H166.301C159.784 115.346 155.524 119.666 155.524 125.094V144.181C155.524 148.343 158.79 151.634 162.922 151.634C167.054 151.634 170.322 148.343 170.322 144.181V133.337L166.474 129.913C165.946 129.43 166.179 128.642 166.937 128.642C167.157 128.642 179.057 128.642 179.057 128.642C194.144 128.642 206.252 120.511 206.252 104.833V104.64C206.252 90.799 196.547 81.217 180.499 81.217Z" fill="white"/>
</svg>
